<svg id="visual" viewBox="0 0 1024 200" width="1024" height="200" xmlns="http://www.w3.org/2000/svg" xmlns:xlink="http://www.w3.org/1999/xlink" version="1.1"><rect x="0" y="0" width="1024" height="200" fill="#242424"></rect><path d="M0 35L24.3 39.8C48.7 44.7 97.3 54.3 146.2 65C195 75.7 244 87.3 292.8 83.2C341.7 79 390.3 59 439 55.2C487.7 51.3 536.3 63.7 585 70.8C633.7 78 682.3 80 731.2 74.5C780 69 829 56 877.8 51.3C926.7 46.7 975.3 50.3 999.7 52.2L1024 54L1024 201L999.7 201C975.3 201 926.7 201 877.8 201C829 201 780 201 731.2 201C682.3 201 633.7 201 585 201C536.3 201 487.7 201 439 201C390.3 201 341.7 201 292.8 201C244 201 195 201 146.2 201C97.3 201 48.7 201 24.3 201L0 201Z" fill="#1d1b1b"></path><path d="M0 82L24.3 79.3C48.7 76.7 97.3 71.3 146.2 70.5C195 69.7 244 73.3 292.8 82.3C341.7 91.3 390.3 105.7 439 103.8C487.7 102 536.3 84 585 80.2C633.7 76.3 682.3 86.7 731.2 89.2C780 91.7 829 86.3 877.8 84.5C926.7 82.7 975.3 84.3 999.7 85.2L1024 86L1024 201L999.7 201C975.3 201 926.7 201 877.8 201C829 201 780 201 731.2 201C682.3 201 633.7 201 585 201C536.3 201 487.7 201 439 201C390.3 201 341.7 201 292.8 201C244 201 195 201 146.2 201C97.3 201 48.7 201 24.3 201L0 201Z" fill="#593631"></path><path d="M0 138L24.3 133C48.7 128 97.3 118 146.2 110.3C195 102.7 244 97.3 292.8 94.7C341.7 92 390.3 92 439 100C487.7 108 536.3 124 585 128C633.7 132 682.3 124 731.2 121.3C780 118.7 829 121.3 877.8 117.7C926.7 114 975.3 104 999.7 99L1024 94L1024 201L999.7 201C975.3 201 926.7 201 877.8 201C829 201 780 201 731.2 201C682.3 201 633.7 201 585 201C536.3 201 487.7 201 439 201C390.3 201 341.7 201 292.8 201C244 201 195 201 146.2 201C97.3 201 48.7 201 24.3 201L0 201Z" fill="#96563e"></path><path d="M0 129L24.3 132.7C48.7 136.3 97.3 143.7 146.2 143.5C195 143.3 244 135.7 292.8 135.3C341.7 135 390.3 142 439 144.7C487.7 147.3 536.3 145.7 585 142.7C633.7 139.7 682.3 135.3 731.2 135.7C780 136 829 141 877.8 145.2C926.7 149.3 975.3 152.7 999.7 154.3L1024 156L1024 201L999.7 201C975.3 201 926.7 201 877.8 201C829 201 780 201 731.2 201C682.3 201 633.7 201 585 201C536.3 201 487.7 201 439 201C390.3 201 341.7 201 292.8 201C244 201 195 201 146.2 201C97.3 201 48.7 201 24.3 201L0 201Z" fill="#ce7e41"></path><path d="M0 157L24.3 160.7C48.7 164.3 97.3 171.7 146.2 172.7C195 173.7 244 168.3 292.8 166.2C341.7 164 390.3 165 439 168.2C487.7 171.3 536.3 176.7 585 175.7C633.7 174.7 682.3 167.3 731.2 164.7C780 162 829 164 877.8 166.5C926.7 169 975.3 172 999.7 173.5L1024 175L1024 201L999.7 201C975.3 201 926.7 201 877.8 201C829 201 780 201 731.2 201C682.3 201 633.7 201 585 201C536.3 201 487.7 201 439 201C390.3 201 341.7 201 292.8 201C244 201 195 201 146.2 201C97.3 201 48.7 201 24.3 201L0 201Z" fill="#fcaf3c"></path></svg>