<svg id="visual" viewBox="0 0 900 600" width="900" height="600" xmlns="http://www.w3.org/2000/svg" xmlns:xlink="http://www.w3.org/1999/xlink" version="1.1"><rect x="0" y="0" width="900" height="600" fill="#000000"></rect><path d="M0 421L21.5 413.3C43 405.7 86 390.3 128.8 380.3C171.7 370.3 214.3 365.7 257.2 377.8C300 390 343 419 385.8 430.7C428.7 442.3 471.3 436.7 514.2 433.2C557 429.7 600 428.3 642.8 430.8C685.7 433.3 728.3 439.7 771.2 434.2C814 428.7 857 411.3 878.5 402.7L900 394L900 601L878.5 601C857 601 814 601 771.2 601C728.3 601 685.7 601 642.8 601C600 601 557 601 514.2 601C471.3 601 428.7 601 385.8 601C343 601 300 601 257.2 601C214.3 601 171.7 601 128.8 601C86 601 43 601 21.5 601L0 601Z" fill="#131313"></path><path d="M0 469L21.5 465.7C43 462.3 86 455.7 128.8 448.3C171.7 441 214.3 433 257.2 431.2C300 429.3 343 433.7 385.8 441.8C428.7 450 471.3 462 514.2 465.3C557 468.7 600 463.3 642.8 453.3C685.7 443.3 728.3 428.7 771.2 423C814 417.3 857 420.7 878.5 422.3L900 424L900 601L878.5 601C857 601 814 601 771.2 601C728.3 601 685.7 601 642.8 601C600 601 557 601 514.2 601C471.3 601 428.7 601 385.8 601C343 601 300 601 257.2 601C214.3 601 171.7 601 128.8 601C86 601 43 601 21.5 601L0 601Z" fill="#47351f"></path><path d="M0 486L21.5 479C43 472 86 458 128.8 453.5C171.7 449 214.3 454 257.2 460C300 466 343 473 385.8 471.7C428.7 470.3 471.3 460.7 514.2 454.5C557 448.3 600 445.7 642.8 449.7C685.7 453.7 728.3 464.3 771.2 466C814 467.7 857 460.3 878.5 456.7L900 453L900 601L878.5 601C857 601 814 601 771.2 601C728.3 601 685.7 601 642.8 601C600 601 557 601 514.2 601C471.3 601 428.7 601 385.8 601C343 601 300 601 257.2 601C214.3 601 171.7 601 128.8 601C86 601 43 601 21.5 601L0 601Z" fill="#7f5b2a"></path><path d="M0 495L21.5 493.5C43 492 86 489 128.8 487.8C171.7 486.7 214.3 487.3 257.2 491.7C300 496 343 504 385.8 508.2C428.7 512.3 471.3 512.7 514.2 510C557 507.3 600 501.7 642.8 501.3C685.7 501 728.3 506 771.2 508.2C814 510.3 857 509.7 878.5 509.3L900 509L900 601L878.5 601C857 601 814 601 771.2 601C728.3 601 685.7 601 642.8 601C600 601 557 601 514.2 601C471.3 601 428.7 601 385.8 601C343 601 300 601 257.2 601C214.3 601 171.7 601 128.8 601C86 601 43 601 21.5 601L0 601Z" fill="#bc8434"></path><path d="M0 526L21.5 529.5C43 533 86 540 128.8 542.3C171.7 544.7 214.3 542.3 257.2 538.8C300 535.3 343 530.7 385.8 535.7C428.7 540.7 471.3 555.3 514.2 558.5C557 561.7 600 553.3 642.8 547.2C685.7 541 728.3 537 771.2 541.2C814 545.3 857 557.7 878.5 563.8L900 570L900 601L878.5 601C857 601 814 601 771.2 601C728.3 601 685.7 601 642.8 601C600 601 557 601 514.2 601C471.3 601 428.7 601 385.8 601C343 601 300 601 257.2 601C214.3 601 171.7 601 128.8 601C86 601 43 601 21.5 601L0 601Z" fill="#fcaf3c"></path></svg>