<svg id="visual" viewBox="0 0 540 100" width="540" height="100" xmlns="http://www.w3.org/2000/svg" xmlns:xlink="http://www.w3.org/1999/xlink" version="1.1"><rect x="0" y="0" width="540" height="100" fill="#242424"></rect><path d="M0 17L12.8 19.5C25.7 22 51.3 27 77 32.3C102.7 37.7 128.3 43.3 154 41.2C179.7 39 205.3 29 231.2 27C257 25 283 31 308.8 34.5C334.7 38 360.3 39 386 36.3C411.7 33.7 437.3 27.3 463 25.2C488.7 23 514.3 25 527.2 26L540 27L540 101L527.2 101C514.3 101 488.7 101 463 101C437.3 101 411.7 101 386 101C360.3 101 334.7 101 308.8 101C283 101 257 101 231.2 101C205.3 101 179.7 101 154 101C128.3 101 102.7 101 77 101C51.3 101 25.7 101 12.8 101L0 101Z" fill="#1d1b1b"></path><path d="M0 41L12.8 39.5C25.7 38 51.3 35 77 34.5C102.7 34 128.3 36 154 40.5C179.7 45 205.3 52 231.2 51.2C257 50.3 283 41.7 308.8 39.8C334.7 38 360.3 43 386 44.2C411.7 45.3 437.3 42.7 463 41.8C488.7 41 514.3 42 527.2 42.5L540 43L540 101L527.2 101C514.3 101 488.7 101 463 101C437.3 101 411.7 101 386 101C360.3 101 334.7 101 308.8 101C283 101 257 101 231.2 101C205.3 101 179.7 101 154 101C128.3 101 102.7 101 77 101C51.3 101 25.7 101 12.8 101L0 101Z" fill="#593631"></path><path d="M0 69L12.8 66.5C25.7 64 51.3 59 77 55C102.7 51 128.3 48 154 46.7C179.7 45.3 205.3 45.7 231.2 49.8C257 54 283 62 308.8 64C334.7 66 360.3 62 386 60.5C411.7 59 437.3 60 463 58C488.7 56 514.3 51 527.2 48.5L540 46L540 101L527.2 101C514.3 101 488.7 101 463 101C437.3 101 411.7 101 386 101C360.3 101 334.7 101 308.8 101C283 101 257 101 231.2 101C205.3 101 179.7 101 154 101C128.3 101 102.7 101 77 101C51.3 101 25.7 101 12.8 101L0 101Z" fill="#96563e"></path><path d="M0 64L12.8 65.8C25.7 67.7 51.3 71.3 77 71.3C102.7 71.3 128.3 67.7 154 67.5C179.7 67.3 205.3 70.7 231.2 71.8C257 73 283 72 308.8 70.5C334.7 69 360.3 67 386 67.2C411.7 67.3 437.3 69.7 463 71.7C488.7 73.7 514.3 75.3 527.2 76.2L540 77L540 101L527.2 101C514.3 101 488.7 101 463 101C437.3 101 411.7 101 386 101C360.3 101 334.7 101 308.8 101C283 101 257 101 231.2 101C205.3 101 179.7 101 154 101C128.3 101 102.7 101 77 101C51.3 101 25.7 101 12.8 101L0 101Z" fill="#ce7e41"></path><path d="M0 78L12.8 79.8C25.7 81.7 51.3 85.3 77 85.8C102.7 86.3 128.3 83.7 154 82.7C179.7 81.7 205.3 82.3 231.2 83.8C257 85.3 283 87.7 308.8 87C334.7 86.3 360.3 82.7 386 81.5C411.7 80.3 437.3 81.7 463 83C488.7 84.3 514.3 85.7 527.2 86.3L540 87L540 101L527.2 101C514.3 101 488.7 101 463 101C437.3 101 411.7 101 386 101C360.3 101 334.7 101 308.8 101C283 101 257 101 231.2 101C205.3 101 179.7 101 154 101C128.3 101 102.7 101 77 101C51.3 101 25.7 101 12.8 101L0 101Z" fill="#fcaf3c"></path></svg>