<svg id="visual" viewBox="0 0 960 270" width="960" height="270" xmlns="http://www.w3.org/2000/svg" xmlns:xlink="http://www.w3.org/1999/xlink" version="1.1"><rect x="0" y="0" width="960" height="270" fill="#242424"></rect><path d="M0 47L22.8 53.7C45.7 60.3 91.3 73.7 137 88.2C182.7 102.7 228.3 118.3 274 112.7C319.7 107 365.3 80 411.2 74.8C457 69.7 503 86.3 548.8 96C594.7 105.7 640.3 108.3 686 101C731.7 93.7 777.3 76.3 823 70.2C868.7 64 914.3 69 937.2 71.5L960 74L960 271L937.2 271C914.3 271 868.7 271 823 271C777.3 271 731.7 271 686 271C640.3 271 594.7 271 548.8 271C503 271 457 271 411.2 271C365.3 271 319.7 271 274 271C228.3 271 182.7 271 137 271C91.3 271 45.7 271 22.8 271L0 271Z" fill="#1d1b1b"></path><path d="M0 111L22.8 107.3C45.7 103.7 91.3 96.3 137 95.3C182.7 94.3 228.3 99.7 274 111.8C319.7 124 365.3 143 411.2 140.5C457 138 503 114 548.8 108.8C594.7 103.7 640.3 117.3 686 120.7C731.7 124 777.3 117 823 114.5C868.7 112 914.3 114 937.2 115L960 116L960 271L937.2 271C914.3 271 868.7 271 823 271C777.3 271 731.7 271 686 271C640.3 271 594.7 271 548.8 271C503 271 457 271 411.2 271C365.3 271 319.7 271 274 271C228.3 271 182.7 271 137 271C91.3 271 45.7 271 22.8 271L0 271Z" fill="#593631"></path><path d="M0 187L22.8 180.3C45.7 173.7 91.3 160.3 137 149.8C182.7 139.3 228.3 131.7 274 128C319.7 124.3 365.3 124.7 411.2 135.7C457 146.7 503 168.3 548.8 173.7C594.7 179 640.3 168 686 164.3C731.7 160.7 777.3 164.3 823 159.3C868.7 154.3 914.3 140.7 937.2 133.8L960 127L960 271L937.2 271C914.3 271 868.7 271 823 271C777.3 271 731.7 271 686 271C640.3 271 594.7 271 548.8 271C503 271 457 271 411.2 271C365.3 271 319.7 271 274 271C228.3 271 182.7 271 137 271C91.3 271 45.7 271 22.8 271L0 271Z" fill="#96563e"></path><path d="M0 175L22.8 179.8C45.7 184.7 91.3 194.3 137 194.2C182.7 194 228.3 184 274 183.7C319.7 183.3 365.3 192.7 411.2 196C457 199.3 503 196.7 548.8 192.7C594.7 188.7 640.3 183.3 686 183.8C731.7 184.3 777.3 190.7 823 196.2C868.7 201.7 914.3 206.3 937.2 208.7L960 211L960 271L937.2 271C914.3 271 868.7 271 823 271C777.3 271 731.7 271 686 271C640.3 271 594.7 271 548.8 271C503 271 457 271 411.2 271C365.3 271 319.7 271 274 271C228.3 271 182.7 271 137 271C91.3 271 45.7 271 22.8 271L0 271Z" fill="#ce7e41"></path><path d="M0 212L22.8 216.8C45.7 221.7 91.3 231.3 137 232.8C182.7 234.3 228.3 227.7 274 225C319.7 222.3 365.3 223.7 411.2 227.8C457 232 503 239 548.8 237.5C594.7 236 640.3 226 686 222.5C731.7 219 777.3 222 823 225.5C868.7 229 914.3 233 937.2 235L960 237L960 271L937.2 271C914.3 271 868.7 271 823 271C777.3 271 731.7 271 686 271C640.3 271 594.7 271 548.8 271C503 271 457 271 411.2 271C365.3 271 319.7 271 274 271C228.3 271 182.7 271 137 271C91.3 271 45.7 271 22.8 271L0 271Z" fill="#fcaf3c"></path></svg>