<svg id="visual" viewBox="0 0 960 170" width="960" height="170" xmlns="http://www.w3.org/2000/svg" xmlns:xlink="http://www.w3.org/1999/xlink" version="1.1"><rect x="0" y="0" width="960" height="170" fill="#242424"></rect><path d="M0 29L22.8 33.3C45.7 37.7 91.3 46.3 137 55.5C182.7 64.7 228.3 74.3 274 70.7C319.7 67 365.3 50 411.2 46.7C457 43.3 503 53.7 548.8 59.7C594.7 65.7 640.3 67.3 686 62.8C731.7 58.3 777.3 47.7 823 43.8C868.7 40 914.3 43 937.2 44.5L960 46L960 171L937.2 171C914.3 171 868.7 171 823 171C777.3 171 731.7 171 686 171C640.3 171 594.7 171 548.8 171C503 171 457 171 411.2 171C365.3 171 319.7 171 274 171C228.3 171 182.7 171 137 171C91.3 171 45.7 171 22.8 171L0 171Z" fill="#1d1b1b"></path><path d="M0 70L22.8 67.7C45.7 65.3 91.3 60.7 137 59.8C182.7 59 228.3 62 274 69.7C319.7 77.3 365.3 89.7 411.2 88.2C457 86.7 503 71.3 548.8 68C594.7 64.7 640.3 73.3 686 75.5C731.7 77.7 777.3 73.3 823 71.8C868.7 70.3 914.3 71.7 937.2 72.3L960 73L960 171L937.2 171C914.3 171 868.7 171 823 171C777.3 171 731.7 171 686 171C640.3 171 594.7 171 548.8 171C503 171 457 171 411.2 171C365.3 171 319.7 171 274 171C228.3 171 182.7 171 137 171C91.3 171 45.7 171 22.8 171L0 171Z" fill="#593631"></path><path d="M0 117L22.8 112.8C45.7 108.7 91.3 100.3 137 93.8C182.7 87.3 228.3 82.7 274 80.3C319.7 78 365.3 78 411.2 84.8C457 91.7 503 105.3 548.8 108.8C594.7 112.3 640.3 105.7 686 103.3C731.7 101 777.3 103 823 99.8C868.7 96.7 914.3 88.3 937.2 84.2L960 80L960 171L937.2 171C914.3 171 868.7 171 823 171C777.3 171 731.7 171 686 171C640.3 171 594.7 171 548.8 171C503 171 457 171 411.2 171C365.3 171 319.7 171 274 171C228.3 171 182.7 171 137 171C91.3 171 45.7 171 22.8 171L0 171Z" fill="#96563e"></path><path d="M0 110L22.8 113C45.7 116 91.3 122 137 121.8C182.7 121.7 228.3 115.3 274 115.2C319.7 115 365.3 121 411.2 123.2C457 125.3 503 123.7 548.8 121C594.7 118.3 640.3 114.7 686 115C731.7 115.3 777.3 119.7 823 123.2C868.7 126.7 914.3 129.3 937.2 130.7L960 132L960 171L937.2 171C914.3 171 868.7 171 823 171C777.3 171 731.7 171 686 171C640.3 171 594.7 171 548.8 171C503 171 457 171 411.2 171C365.3 171 319.7 171 274 171C228.3 171 182.7 171 137 171C91.3 171 45.7 171 22.8 171L0 171Z" fill="#ce7e41"></path><path d="M0 133L22.8 136.2C45.7 139.3 91.3 145.7 137 146.7C182.7 147.7 228.3 143.3 274 141.5C319.7 139.7 365.3 140.3 411.2 143C457 145.7 503 150.3 548.8 149.3C594.7 148.3 640.3 141.7 686 139.3C731.7 137 777.3 139 823 141.3C868.7 143.7 914.3 146.3 937.2 147.7L960 149L960 171L937.2 171C914.3 171 868.7 171 823 171C777.3 171 731.7 171 686 171C640.3 171 594.7 171 548.8 171C503 171 457 171 411.2 171C365.3 171 319.7 171 274 171C228.3 171 182.7 171 137 171C91.3 171 45.7 171 22.8 171L0 171Z" fill="#fcaf3c"></path></svg>